<?xml version="1.0" encoding="UTF-8"?>
<svg width="91px" height="30px" viewBox="0 0 91 30" version="1.1" xmlns="http://www.w3.org/2000/svg" xmlns:xlink="http://www.w3.org/1999/xlink">
    <!-- Generator: Sketch 51 (57462) - http://www.bohemiancoding.com/sketch -->
    <title>Combined Shape</title>
    <desc>Created with Sketch.</desc>
    <defs></defs>
    <g id="Page-1" stroke="none" stroke-width="1" fill="none" fill-rule="evenodd">
        <g id="Red-Tag" fill="#e53e30" fill-rule="nonzero">
            <g id="red-tag">
                <path d="M0,15.1684929 C8.40298576e-16,10.644389 2.55980583,6.02814271 7.67941749,1.31975402 C8.6022598,0.471037248 9.81028109,4.61956759e-07 11.0640586,3.95437493e-07 L86,2.30098294e-07 C88.7614237,2.30098294e-07 91,2.23857648 91,5.00000023 L90.9999997,25 C90.9999997,27.7614237 88.7614235,30 85.9999997,30 L11.0032682,30 C9.78533024,30 8.60927002,29.5554527 7.69586557,28.7498069 C2.56528852,24.2245438 0,19.6974391 0,15.1684929 Z M8.88259753,18.8622791 C10.7222437,18.8622791 12.2135716,17.3719973 12.2135716,15.5336416 C12.2135716,13.6952859 10.7222437,12.2050041 8.88259753,12.2050041 C7.04295135,12.2050041 5.55162346,13.6952859 5.55162346,15.5336416 C5.55162346,17.3719973 7.04295135,18.8622791 8.88259753,18.8622791 Z" id="Combined-Shape"></path>
            </g>
        </g>
    </g>
</svg>