<?xml version="1.0" encoding="utf-8"?>
<!-- Generator: Adobe Illustrator 19.2.1, SVG Export Plug-In . SVG Version: 6.00 Build 0)  -->
<!DOCTYPE svg PUBLIC "-//W3C//DTD SVG 1.1//EN" "http://www.w3.org/Graphics/SVG/1.1/DTD/svg11.dtd">
<svg version="1.1" id="Layer_1" xmlns="http://www.w3.org/2000/svg" xmlns:xlink="http://www.w3.org/1999/xlink" x="0px" y="0px"
	 viewBox="0 0 100.3 23.8" style="enable-background:new 0 0 100.3 23.8;" xml:space="preserve">
<style type="text/css">
	.st0{fill:#08B89D;}
	.st1{fill:#003D6A;}
	.st2{fill:#ED145B;}
	.st3{fill:#FFDF4F;}
	.st4{fill:#1A1617;}
</style>
<title>ALIGN-logo</title>
<path class="st0" d="M3.8,4.3C3.5,4.3,3.3,4,3.4,3.8c0-0.1,0-0.2,0.1-0.3C5.7,1.2,8.7,0,11.9,0c0.3,0,0.5,0.1,0.5,0.4
	c0,0.3-0.1,0.5-0.4,0.5c0,0-0.1,0-0.1,0C9,0.9,6.2,2.1,4.1,4.1C4.1,4.2,3.9,4.3,3.8,4.3z"/>
<path class="st1" d="M0.4,12.3c-0.3,0-0.5-0.2-0.4-0.5c0-3.2,1.2-6.2,3.5-8.4c0.1-0.2,0.4-0.3,0.6-0.1S4.4,3.8,4.2,4
	c0,0-0.1,0.1-0.1,0.1C2.1,6.2,0.9,9,0.9,11.9C0.9,12.1,0.7,12.3,0.4,12.3z"/>
<path class="st2" d="M11.9,23.8c-3.2,0-6.2-1.2-8.4-3.5c-0.2-0.2-0.2-0.5,0-0.7c0.2-0.2,0.5-0.2,0.7,0l0,0c2,2.1,4.8,3.2,7.7,3.2
	c0.2,0.1,0.4,0.3,0.3,0.6C12.2,23.6,12.1,23.7,11.9,23.8z"/>
<path class="st2" d="M20,20.4c-0.3,0-0.5-0.2-0.4-0.5c0-0.1,0-0.2,0.1-0.3c2.1-2.1,3.2-4.8,3.2-7.8c0-0.3,0.1-0.5,0.4-0.5
	c0.3,0,0.5,0.1,0.5,0.4c0,0,0,0.1,0,0.1c0,3.2-1.2,6.2-3.5,8.4C20.2,20.4,20.1,20.4,20,20.4z"/>
<path class="st1" d="M23.3,12.3c-0.2,0-0.4-0.2-0.4-0.5c0-2.9-1.2-5.7-3.2-7.8c-0.1-0.2-0.1-0.5,0.1-0.6c0.2-0.1,0.4-0.1,0.5,0
	c2.2,2.2,3.5,5.2,3.5,8.4C23.8,12.1,23.6,12.3,23.3,12.3z"/>
<path class="st0" d="M18.4,5.9c-0.1,0-0.2,0-0.3-0.1c-1.6-1.6-3.8-2.6-6.1-2.6c-0.3,0-0.5-0.1-0.5-0.4c0-0.3,0.1-0.5,0.4-0.5
	c0,0,0.1,0,0.1,0c2.6,0,5,1,6.8,2.8c0.2,0.2,0.2,0.5,0,0.6C18.6,5.8,18.5,5.9,18.4,5.9z"/>
<path class="st3" d="M2.7,12.3c-0.3,0-0.5-0.2-0.4-0.5c0-2.6,1-5,2.8-6.8C5.3,4.9,5.6,5,5.7,5.2c0.1,0.2,0.1,0.4,0,0.5
	c-1.7,1.6-2.6,3.8-2.6,6.2C3.2,12.1,3,12.3,2.7,12.3z"/>
<path class="st0" d="M5.4,18.8c-0.1,0-0.2,0-0.3-0.1c-1.8-1.8-2.8-4.2-2.8-6.8c0.1-0.2,0.3-0.4,0.6-0.3c0.1,0,0.2,0.2,0.3,0.3
	c0,2.3,0.9,4.5,2.5,6.1c0.2,0.2,0.2,0.5,0,0.7C5.6,18.8,5.5,18.8,5.4,18.8z"/>
<path class="st3" d="M11.9,21.5c-0.3,0-0.4-0.3-0.4-0.5c0-0.2,0.2-0.4,0.4-0.4c2.3,0,4.5-0.9,6.1-2.5c0.1-0.2,0.4-0.3,0.6-0.1
	c0.2,0.1,0.3,0.4,0.1,0.6c0,0-0.1,0.1-0.1,0.1C16.9,20.5,14.4,21.5,11.9,21.5z"/>
<path class="st3" d="M21,12.3c-0.2,0-0.4-0.2-0.5-0.5c0-2.3-0.9-4.5-2.5-6.1c-0.2-0.1-0.3-0.4-0.1-0.6s0.4-0.3,0.6-0.1
	c0,0,0.1,0.1,0.1,0.1c1.8,1.8,2.8,4.2,2.8,6.8C21.5,12.1,21.3,12.3,21,12.3z"/>
<path class="st0" d="M5,12.3c-0.3,0-0.5-0.2-0.4-0.5c0-1.9,0.8-3.8,2.1-5.2c0.1-0.2,0.4-0.3,0.6-0.1S7.6,7,7.5,7.3
	c0,0-0.1,0.1-0.1,0.1c-1.2,1.2-1.9,2.8-1.9,4.5C5.5,12.1,5.3,12.3,5,12.3L5,12.3z"/>
<path class="st1" d="M11.9,19.2c-1.9,0-3.8-0.8-5.2-2.1c-0.1-0.2-0.1-0.5,0.1-0.6c0.2-0.1,0.4-0.1,0.5,0c1.2,1.2,2.8,1.9,4.5,1.9
	c0.2-0.1,0.5,0.1,0.5,0.3c0.1,0.2-0.1,0.5-0.3,0.5C12,19.2,12,19.2,11.9,19.2z"/>
<path class="st0" d="M16.7,17.2c-0.3,0-0.5-0.2-0.4-0.5c0-0.1,0-0.2,0.1-0.3c1.2-1.2,1.9-2.8,1.9-4.5c-0.1-0.2,0.1-0.5,0.3-0.6
	c0.2-0.1,0.5,0.1,0.6,0.3c0,0.1,0,0.2,0,0.3c0,1.9-0.8,3.8-2.1,5.2C16.9,17.1,16.8,17.2,16.7,17.2z"/>
<path class="st2" d="M18.7,12.3c-0.3,0-0.5-0.2-0.5-0.5c0-1.7-0.7-3.3-1.9-4.5c-0.1-0.2-0.1-0.5,0.1-0.6c0.2-0.1,0.4-0.1,0.5,0
	c1.4,1.4,2.1,3.2,2.1,5.2C19.1,12.1,19,12.3,18.7,12.3z"/>
<path class="st2" d="M7,7.5C6.8,7.5,6.6,7.3,6.6,7c0-0.1,0-0.2,0.1-0.3c1.4-1.4,3.2-2.1,5.2-2.1c0.3,0,0.4,0.3,0.4,0.5
	c0,0.2-0.2,0.4-0.4,0.4c-1.7,0-3.3,0.7-4.5,1.9C7.3,7.5,7.2,7.5,7,7.5z"/>
<path class="st4" d="M34,10l-0.2-0.8h-2.4L31.1,10h-2.3l2.5-6.6h2.5l2.4,6.6H34z M32.5,5.4l-0.7,2.1h1.3L32.5,5.4z"/>
<path class="st4" d="M39.6,10V3.4h2v4.9h2.6V10L39.6,10L39.6,10z"/>
<path class="st4" d="M47.9,10V3.4h2V10H47.9z"/>
<path class="st4" d="M53.7,6.7c0-1.9,1.5-3.4,3.4-3.4c0.1,0,0.2,0,0.3,0c1.2-0.1,2.4,0.6,2.9,1.7l-1.7,0.9c-0.2-0.5-0.7-0.8-1.2-0.8
	c-0.9,0-1.6,0.7-1.6,1.6c0,0,0,0.1,0,0.1c0,0.9,0.6,1.6,1.5,1.7c0,0,0.1,0,0.1,0c0.4,0,0.7-0.1,1-0.3V7.9h-1.2V6.1h3.2v2.7
	c-0.8,0.9-1.9,1.4-3,1.4c-1.9,0.2-3.5-1.2-3.7-3.1C53.7,6.9,53.7,6.8,53.7,6.7z"/>
<path class="st4" d="M68.2,10l-2.4-3.4V10h-2V3.4h2l2.3,3.1V3.4h2V10H68.2z"/>
<path class="st4" d="M30.6,15.1l-0.2-0.5h-1.3l-0.2,0.5h-0.6l1.1-2.8H30l1.1,2.8H30.6z M29.7,12.8l-0.5,1.4h1L29.7,12.8z"/>
<path class="st4" d="M31.4,14.8l0.2-0.3c0.2,0.2,0.4,0.3,0.7,0.3c0.2,0,0.4-0.1,0.4-0.2c0,0,0,0,0,0c0-0.2-0.2-0.2-0.5-0.3
	c-0.4,0-0.7-0.3-0.8-0.6c0-0.4,0.4-0.7,0.8-0.6c0,0,0,0,0,0c0.3,0,0.6,0.1,0.8,0.3l-0.2,0.3c-0.2-0.2-0.4-0.3-0.6-0.2
	c-0.2,0-0.3,0.1-0.4,0.2c0,0,0,0,0,0c0,0.1,0.2,0.2,0.5,0.2c0.4,0,0.7,0.3,0.8,0.7c0,0.4-0.4,0.7-0.8,0.6c0,0,0,0-0.1,0
	C32,15.2,31.7,15,31.4,14.8z"/>
<path class="st4" d="M33.6,14.8l0.2-0.3c0.2,0.2,0.4,0.3,0.7,0.3c0.2,0,0.4-0.1,0.4-0.2c0,0,0,0,0,0c0-0.2-0.2-0.2-0.5-0.3
	c-0.4,0-0.7-0.3-0.8-0.6c0-0.4,0.4-0.7,0.8-0.6c0,0,0,0,0,0c0.3,0,0.6,0.1,0.8,0.3l-0.2,0.3c-0.2-0.2-0.4-0.3-0.6-0.2
	c-0.2,0-0.3,0.1-0.4,0.2c0,0,0,0,0,0c0,0.1,0.2,0.2,0.4,0.2c0.4,0,0.7,0.3,0.8,0.7c0,0.4-0.4,0.7-0.8,0.6c0,0,0,0-0.1,0
	C34.2,15.2,33.8,15,33.6,14.8z"/>
<path class="st4" d="M35.8,14.1c0-0.6,0.5-1.1,1.1-1c0.6,0,1.1,0.5,1,1.1c0,0.6-0.5,1-1.1,1c-0.6,0-1-0.4-1.1-0.9
	C35.8,14.2,35.8,14.1,35.8,14.1z M37.5,14.1c0-0.3-0.3-0.6-0.7-0.5c-0.3,0-0.6,0.3-0.5,0.7c0,0.3,0.3,0.5,0.6,0.5
	C37.2,14.7,37.5,14.4,37.5,14.1C37.5,14.1,37.5,14.1,37.5,14.1z"/>
<path class="st4" d="M38.4,14.1c0-0.6,0.4-1,0.9-1.1c0,0,0.1,0,0.1,0c0.3,0,0.6,0.1,0.8,0.4L40,13.6c-0.1-0.2-0.3-0.2-0.5-0.2
	c-0.4,0.1-0.6,0.4-0.6,0.8c0,0.3,0.3,0.5,0.6,0.6c0.2,0,0.4-0.1,0.5-0.2l0.3,0.3c-0.2,0.2-0.5,0.4-0.8,0.4c-0.6,0-1-0.4-1.1-0.9
	C38.4,14.2,38.4,14.1,38.4,14.1z"/>
<path class="st4" d="M40.8,12.5c0-0.2,0.1-0.3,0.3-0.3s0.3,0.1,0.3,0.3c0,0.2-0.1,0.3-0.3,0.3l0,0C40.9,12.8,40.8,12.7,40.8,12.5z
	 M40.8,15.1V13h0.5v2.1H40.8z"/>
<path class="st4" d="M43.3,15.1v-0.2c-0.2,0.2-0.4,0.3-0.7,0.3c-0.4,0-0.7-0.3-0.7-0.6c0,0,0,0,0,0c0-0.4,0.3-0.7,0.6-0.7
	c0,0,0,0,0.1,0c0.2,0,0.5,0.1,0.7,0.3v-0.3c0-0.2-0.2-0.4-0.4-0.4c0,0,0,0,0,0c-0.2,0-0.5,0.1-0.6,0.3L42,13.3
	c0.2-0.2,0.5-0.3,0.9-0.3c0.4-0.1,0.8,0.2,0.8,0.6c0,0,0,0.1,0,0.1v1.3H43.3z M43.3,14.6v-0.3c-0.1-0.1-0.3-0.2-0.5-0.2
	c-0.2,0-0.4,0.2-0.4,0.4s0.2,0.4,0.4,0.4c0,0,0,0,0,0C43,14.9,43.2,14.8,43.3,14.6L43.3,14.6z"/>
<path class="st4" d="M44.6,14.6v-1.2h-0.3V13h0.3v-0.6H45V13h0.4v0.4H45v1.1c0,0.1,0.1,0.2,0.2,0.2c0,0,0,0,0,0c0.1,0,0.1,0,0.2-0.1
	l0.1,0.3c-0.1,0.1-0.3,0.1-0.4,0.1c-0.3,0-0.5-0.1-0.5-0.4C44.6,14.7,44.6,14.7,44.6,14.6z"/>
<path class="st4" d="M46,12.5c0-0.2,0.1-0.3,0.3-0.3c0.2,0,0.3,0.1,0.3,0.3c0,0.2-0.1,0.3-0.3,0.3l0,0C46.1,12.8,46,12.7,46,12.5z
	 M46,15.1V13h0.4v2.1L46,15.1L46,15.1z"/>
<path class="st4" d="M47.1,14.1c0-0.6,0.5-1.1,1.1-1c0.6,0,1.1,0.5,1,1.1c0,0.6-0.5,1-1,1c-0.6,0-1-0.4-1.1-0.9
	C47.1,14.2,47.1,14.1,47.1,14.1z M48.7,14.1c0-0.3-0.3-0.6-0.7-0.5c-0.3,0-0.6,0.3-0.5,0.7c0,0.3,0.3,0.5,0.6,0.5
	C48.5,14.7,48.7,14.4,48.7,14.1C48.7,14.1,48.7,14.1,48.7,14.1z"/>
<path class="st4" d="M51.2,15.1v-1.3c0-0.2-0.1-0.4-0.3-0.4c0,0-0.1,0-0.1,0c-0.2,0-0.4,0.1-0.5,0.3v1.4h-0.4V13h0.5v0.3
	c0.2-0.2,0.4-0.3,0.7-0.3c0.3,0,0.6,0.2,0.7,0.5c0,0,0,0.1,0,0.1v1.4H51.2z"/>
<path class="st4" d="M53.5,14.1c0-0.6,0.5-1.1,1.1-1c0.6,0,1.1,0.5,1,1.1c0,0.6-0.5,1-1.1,1c-0.6,0-1-0.4-1.1-0.9
	C53.5,14.2,53.5,14.1,53.5,14.1z M55.2,14.1c0-0.3-0.3-0.6-0.7-0.5c-0.3,0-0.6,0.3-0.5,0.7c0,0.3,0.3,0.5,0.6,0.5
	C54.9,14.7,55.2,14.4,55.2,14.1C55.2,14.1,55.2,14.1,55.2,14.1L55.2,14.1z"/>
<path class="st4" d="M56.4,15.1v-1.7H56V13h0.3v-0.1c0-0.3,0.2-0.7,0.5-0.7c0,0,0.1,0,0.1,0c0.1,0,0.2,0,0.4,0.1l-0.1,0.3
	c-0.1,0-0.1,0-0.2,0c-0.2,0-0.3,0.1-0.3,0.3c0,0,0,0,0,0V13h0.4v0.4h-0.4v1.7H56.4z"/>
<path class="st4" d="M58.9,13.7c0-0.8,0.6-1.4,1.4-1.5c0,0,0.1,0,0.1,0c0.5,0,0.9,0.2,1.1,0.6l-0.4,0.2c-0.1-0.3-0.4-0.4-0.7-0.4
	c-0.6,0-1,0.4-1,1s0.4,1,1,1c0.3,0,0.6-0.2,0.7-0.4l0.4,0.2c-0.2,0.4-0.7,0.6-1.1,0.6C59.6,15.1,58.9,14.5,58.9,13.7
	C58.9,13.7,58.9,13.7,58.9,13.7z"/>
<path class="st4" d="M61.9,14.1c0-0.6,0.5-1.1,1.1-1c0.6,0,1.1,0.5,1,1.1c0,0.6-0.5,1-1.1,1c-0.6,0-1-0.4-1.1-0.9
	C61.9,14.2,61.9,14.1,61.9,14.1z M63.6,14.1c0-0.3-0.3-0.6-0.7-0.5c-0.3,0-0.6,0.3-0.5,0.7c0,0.3,0.3,0.5,0.6,0.5
	C63.3,14.7,63.6,14.4,63.6,14.1C63.6,14.1,63.6,14.1,63.6,14.1z"/>
<path class="st4" d="M67.2,15.1v-1.3c0-0.2-0.1-0.3-0.3-0.4c0,0,0,0-0.1,0c-0.2,0-0.4,0.1-0.5,0.3v1.4h-0.4v-1.3
	c0-0.2-0.1-0.3-0.3-0.4c0,0,0,0-0.1,0c-0.2,0-0.4,0.1-0.5,0.3v1.4h-0.4V13h0.5v0.3c0.2-0.2,0.4-0.3,0.7-0.3c0.3,0,0.5,0.1,0.6,0.4
	c0.2-0.2,0.4-0.4,0.7-0.4c0.3,0,0.6,0.2,0.6,0.5c0,0,0,0.1,0,0.1v1.5H67.2z"/>
<path class="st4" d="M70.9,15.1v-1.3c0-0.2-0.1-0.3-0.3-0.4c0,0,0,0-0.1,0c-0.2,0-0.4,0.1-0.5,0.3v1.4h-0.4v-1.3
	c0-0.2-0.1-0.3-0.3-0.4c0,0,0,0-0.1,0c-0.2,0-0.4,0.1-0.5,0.3v1.4h-0.4V13h0.4v0.3c0.2-0.2,0.4-0.3,0.7-0.3c0.3,0,0.5,0.1,0.6,0.4
	c0.2-0.2,0.4-0.4,0.7-0.4c0.3,0,0.6,0.2,0.6,0.5c0,0,0,0.1,0,0.1v1.5H70.9z"/>
<path class="st4" d="M73.5,15.1v-0.3c-0.2,0.2-0.5,0.3-0.7,0.3c-0.3,0-0.6-0.2-0.7-0.5c0-0.1,0-0.1,0-0.2V13h0.4v1.3
	c0,0.2,0.1,0.4,0.3,0.4c0,0,0.1,0,0.1,0c0.2,0,0.4-0.1,0.5-0.3V13h0.4v2.1H73.5z"/>
<path class="st4" d="M76.1,15.1v-1.3c0-0.2-0.1-0.4-0.3-0.4c0,0-0.1,0-0.1,0c-0.2,0-0.4,0.1-0.5,0.3v1.4h-0.4V13h0.5v0.3
	c0.2-0.2,0.4-0.3,0.7-0.3c0.3,0,0.6,0.2,0.7,0.5c0,0,0,0.1,0,0.1v1.4H76.1z"/>
<path class="st4" d="M77.2,12.5c0-0.2,0.1-0.3,0.3-0.3s0.3,0.1,0.3,0.3c0,0.2-0.1,0.3-0.3,0.3l0,0C77.3,12.8,77.2,12.7,77.2,12.5z
	 M77.3,15.1V13h0.4v2.1L77.3,15.1L77.3,15.1z"/>
<path class="st4" d="M78.5,14.6v-1.2h-0.3V13h0.3v-0.6H79V13h0.4v0.4H79v1.1c0,0.1,0.1,0.2,0.2,0.2c0,0,0,0,0,0c0.1,0,0.1,0,0.2-0.1
	l0.1,0.3c-0.1,0.1-0.3,0.1-0.4,0.1c-0.3,0-0.5-0.1-0.5-0.4C78.5,14.7,78.5,14.7,78.5,14.6z"/>
<path class="st4" d="M80,15.5c0.1,0,0.1,0,0.2,0c0.1,0,0.2-0.1,0.3-0.2l0.1-0.2L79.7,13h0.5l0.6,1.5l0.6-1.5h0.5l-1,2.4
	c-0.1,0.3-0.4,0.5-0.7,0.5h-0.2L80,15.5z"/>
<path class="st4" d="M83.4,14.7l0.3-0.4c0.2,0.3,0.6,0.4,0.9,0.4c0.3,0.1,0.5-0.1,0.6-0.3c0,0,0,0,0-0.1c0-0.2-0.3-0.3-0.7-0.4
	c-0.5,0-0.9-0.4-1-0.9c0-0.5,0.5-0.9,1-0.8c0,0,0,0,0,0c0.4,0,0.8,0.1,1.1,0.4L85.3,13c-0.2-0.2-0.5-0.3-0.8-0.3
	c-0.2,0-0.4,0.1-0.5,0.3c0,0,0,0,0,0c0.1,0.2,0.4,0.4,0.6,0.4c0.5,0,0.9,0.4,1,0.9c0,0.5-0.4,0.9-0.9,0.9c-0.1,0-0.1,0-0.2,0
	C84.1,15.2,83.7,15,83.4,14.7z"/>
<path class="st4" d="M86.2,14.1c0-0.6,0.4-1,0.9-1.1c0,0,0.1,0,0.1,0c0.6,0,1,0.4,1,1c0,0,0,0.1,0,0.1v0.1h-1.6
	c0,0.3,0.3,0.6,0.7,0.6c0.2,0,0.4-0.1,0.6-0.2l0.2,0.3c-0.2,0.2-0.5,0.3-0.8,0.3c-0.6,0-1-0.4-1-1C86.1,14.1,86.1,14.1,86.2,14.1z
	 M87.2,13.4c-0.3,0-0.6,0.2-0.6,0.5h1.2C87.7,13.6,87.5,13.4,87.2,13.4C87.2,13.4,87.2,13.4,87.2,13.4z"/>
<path class="st4" d="M88.8,15.1V13h0.4v0.3c0.2-0.2,0.4-0.3,0.7-0.4v0.4h-0.1c-0.2,0-0.4,0.1-0.5,0.3v1.4L88.8,15.1L88.8,15.1z"/>
<path class="st4" d="M91,15.1L90.2,13h0.5l0.6,1.5l0.6-1.5h0.5l-0.8,2L91,15.1L91,15.1z"/>
<path class="st4" d="M92.7,12.5c0-0.2,0.1-0.3,0.3-0.3s0.3,0.1,0.3,0.3c0,0.2-0.1,0.3-0.3,0.3l0,0C92.8,12.8,92.7,12.7,92.7,12.5z
	 M92.7,15.1V13h0.4v2.1L92.7,15.1L92.7,15.1z"/>
<path class="st4" d="M93.8,14.1c0-0.6,0.4-1,0.9-1.1c0,0,0.1,0,0.1,0c0.3,0,0.6,0.1,0.8,0.4l-0.3,0.3c-0.1-0.2-0.3-0.2-0.5-0.2
	c-0.4,0.1-0.6,0.4-0.6,0.8c0,0.3,0.3,0.5,0.6,0.6c0.2,0,0.4-0.1,0.5-0.2l0.3,0.3c-0.2,0.2-0.5,0.4-0.8,0.4c-0.6,0-1-0.4-1.1-0.9
	C93.8,14.2,93.8,14.1,93.8,14.1z"/>
<path class="st4" d="M96.1,14.1c0-0.6,0.4-1,0.9-1.1c0,0,0.1,0,0.1,0c0.6,0,1,0.4,1,1c0,0,0,0.1,0,0.1v0.1h-1.5
	c0,0.3,0.3,0.6,0.7,0.6c0.2,0,0.4-0.1,0.6-0.2l0.2,0.3c-0.2,0.2-0.5,0.3-0.8,0.3c-0.6,0-1-0.4-1.1-0.9
	C96.1,14.2,96.1,14.1,96.1,14.1z M97.1,13.4c-0.3,0-0.6,0.2-0.6,0.5h1.2C97.7,13.6,97.4,13.4,97.1,13.4L97.1,13.4z"/>
<path class="st4" d="M98.6,14.8l0.2-0.3c0.2,0.2,0.4,0.3,0.7,0.3c0.2,0,0.4-0.1,0.4-0.2c0,0,0,0,0,0c0-0.2-0.2-0.2-0.5-0.3
	c-0.4,0-0.7-0.3-0.8-0.6c0-0.4,0.4-0.7,0.8-0.6c0,0,0,0,0,0c0.3,0,0.6,0.1,0.8,0.3l-0.2,0.3c-0.2-0.2-0.4-0.3-0.6-0.2
	c-0.2,0-0.3,0.1-0.4,0.2c0,0,0,0,0,0c0,0.1,0.2,0.2,0.4,0.2c0.4,0,0.7,0.3,0.8,0.7c0,0.4-0.4,0.7-0.8,0.6c0,0,0,0-0.1,0
	C99.1,15.2,98.8,15,98.6,14.8z"/>
<path class="st4" d="M29.4,19.7v-2.6h-0.9v-0.2h2.1v0.2h-0.9v2.6H29.4z"/>
<path class="st4" d="M30.6,18.6c0-0.6,0.5-1,1.1-0.9c0.6,0,1,0.5,0.9,1.1c0,0.5-0.5,0.9-1,0.9C31,19.7,30.6,19.3,30.6,18.6
	C30.6,18.7,30.6,18.7,30.6,18.6z M32.3,18.6c-0.1-0.4-0.5-0.7-0.9-0.6c-0.4,0.1-0.7,0.5-0.6,0.9c0.1,0.4,0.4,0.6,0.8,0.6
	C32,19.5,32.3,19.1,32.3,18.6C32.3,18.7,32.3,18.7,32.3,18.6L32.3,18.6z"/>
<path class="st4" d="M33.3,20.2l0.1-0.2c0.2,0.2,0.4,0.3,0.7,0.3c0.3,0,0.7-0.2,0.7-0.6c0,0,0-0.1,0-0.1v-0.3
	c-0.2,0.2-0.4,0.4-0.7,0.4c-0.5,0-0.9-0.4-0.9-0.9c0,0,0-0.1,0-0.1c0-0.6,0.4-1,0.9-1.1c0,0,0,0,0,0c0.3,0,0.5,0.1,0.7,0.4v-0.3H35
	v2c0,0.4-0.3,0.8-0.8,0.9c-0.1,0-0.1,0-0.2,0C33.8,20.5,33.5,20.4,33.3,20.2z M34.8,19.1v-1c-0.1-0.2-0.4-0.4-0.6-0.4
	c-0.5,0.1-0.8,0.6-0.7,1c0.1,0.4,0.4,0.6,0.7,0.7C34.4,19.5,34.6,19.4,34.8,19.1L34.8,19.1z"/>
<path class="st4" d="M35.8,18.6c0-0.6,0.4-1,0.9-1.1c0,0,0.1,0,0.1,0c0.6,0,1,0.4,1,1c0,0,0,0.1,0,0.1v0.1H36c0,0.4,0.3,0.8,0.8,0.8
	c0,0,0,0,0,0c0.3,0,0.5-0.1,0.7-0.3l0.1,0.1c-0.2,0.2-0.5,0.3-0.8,0.3c-0.6,0-1-0.4-1-1C35.7,18.7,35.7,18.7,35.8,18.6z M36.8,17.8
	c-0.4,0-0.7,0.4-0.7,0.8h1.5C37.5,18.1,37.2,17.8,36.8,17.8C36.8,17.8,36.7,17.8,36.8,17.8L36.8,17.8z"/>
<path class="st4" d="M38.5,19.3v-1.5h-0.3v-0.2h0.3v-0.5h0.2v0.6h0.4v0.2h-0.4v1.4c0,0.1,0.1,0.2,0.2,0.3c0,0,0,0,0,0
	c0.1,0,0.2,0,0.2-0.1l0.1,0.2c-0.1,0.1-0.2,0.1-0.3,0.1C38.7,19.7,38.5,19.6,38.5,19.3C38.5,19.3,38.5,19.3,38.5,19.3z"/>
<path class="st4" d="M41.2,19.7v-1.4c0-0.2-0.1-0.5-0.3-0.5c-0.1,0-0.1,0-0.2,0c-0.3,0-0.5,0.1-0.7,0.4v1.5h-0.2v-2.8H40v1
	c0.2-0.2,0.5-0.4,0.7-0.4c0.3,0,0.6,0.2,0.7,0.5c0,0.1,0,0.1,0,0.2v1.4L41.2,19.7L41.2,19.7z"/>
<path class="st4" d="M42.2,18.6c0-0.6,0.4-1,0.9-1.1c0,0,0.1,0,0.1,0c0.6,0,1,0.4,1,1c0,0,0,0.1,0,0.1v0.1h-1.8
	c0,0.4,0.3,0.8,0.8,0.8c0,0,0,0,0,0c0.3,0,0.5-0.1,0.7-0.3l0.1,0.1c-0.2,0.2-0.5,0.3-0.8,0.3C42.6,19.7,42.1,19.3,42.2,18.6
	C42.1,18.7,42.1,18.7,42.2,18.6z M43.2,17.8c-0.4,0-0.7,0.4-0.7,0.8h1.5C43.9,18.1,43.6,17.8,43.2,17.8
	C43.2,17.8,43.2,17.8,43.2,17.8z"/>
<path class="st4" d="M44.8,19.7v-2.1h0.2V18c0.2-0.2,0.4-0.4,0.7-0.4v0.2h-0.1c-0.2,0-0.5,0.2-0.6,0.4v1.5L44.8,19.7L44.8,19.7z"/>
<path class="st4" d="M47.7,19.7v-1.9h-0.3v-0.2h0.3v-0.2c0-0.3,0.2-0.6,0.5-0.6c0,0,0.1,0,0.1,0c0.1,0,0.2,0,0.3,0.1L48.5,17
	c-0.1,0-0.1,0-0.2,0c-0.2,0-0.4,0.2-0.4,0.4c0,0,0,0.1,0,0.1v0.2h0.4v0.2h-0.4v1.9L47.7,19.7L47.7,19.7z"/>
<path class="st4" d="M48.8,18.6c0-0.6,0.5-1,1.1-0.9s1,0.5,0.9,1.1c0,0.5-0.5,0.9-1,0.9C49.2,19.7,48.8,19.3,48.8,18.6
	C48.8,18.7,48.8,18.7,48.8,18.6z M50.5,18.6c-0.1-0.4-0.5-0.7-0.9-0.6c-0.4,0.1-0.7,0.5-0.6,0.9c0.1,0.4,0.4,0.6,0.8,0.6
	C50.2,19.5,50.6,19.1,50.5,18.6C50.5,18.7,50.5,18.7,50.5,18.6z"/>
<path class="st4" d="M51.5,19.7v-2.1h0.2V18c0.2-0.2,0.4-0.4,0.7-0.4v0.2h-0.1c-0.2,0-0.5,0.2-0.6,0.4v1.5L51.5,19.7L51.5,19.7z"/>
<path class="st4" d="M54.2,18.3c0-0.8,0.6-1.4,1.3-1.5c0,0,0.1,0,0.1,0c0.4,0,0.8,0.2,1,0.5l-0.2,0.1c-0.2-0.3-0.5-0.4-0.8-0.4
	c-0.7,0.1-1.2,0.7-1.1,1.4c0.1,0.6,0.5,1.1,1.1,1.1c0.3,0,0.6-0.1,0.8-0.4l0.2,0.1c-0.2,0.3-0.6,0.5-1,0.5
	C54.8,19.7,54.2,19.1,54.2,18.3C54.1,18.3,54.1,18.3,54.2,18.3z"/>
<path class="st4" d="M58.7,19.7v-1.4c0-0.2-0.1-0.5-0.3-0.5c-0.1,0-0.1,0-0.2,0c-0.3,0-0.5,0.1-0.7,0.4v1.5h-0.2v-2.8h0.2v1
	c0.2-0.2,0.5-0.4,0.7-0.4c0.3,0,0.6,0.2,0.7,0.5c0,0.1,0,0.1,0,0.2v1.4L58.7,19.7L58.7,19.7z"/>
<path class="st4" d="M59.7,17.1c0-0.1,0.1-0.2,0.2-0.2c0.1,0,0.2,0.1,0.2,0.2s-0.1,0.2-0.2,0.2C59.8,17.3,59.7,17.2,59.7,17.1z
	 M59.8,19.7v-2.1H60v2L59.8,19.7L59.8,19.7z"/>
<path class="st4" d="M60.9,19.7v-2.8h0.2v2.8H60.9z"/>
<path class="st4" d="M63.5,19.7v-0.3c-0.2,0.2-0.4,0.4-0.7,0.4c-0.6,0-1-0.5-0.9-1.1c0,0,0,0,0,0c0-0.6,0.4-1,0.9-1.1c0,0,0,0,0,0
	c0.3,0,0.5,0.1,0.7,0.4v-1.1h0.2v2.8H63.5z M63.5,19.2v-1c-0.2-0.2-0.4-0.4-0.7-0.4c-0.5,0.1-0.8,0.6-0.7,1.1
	c0.1,0.3,0.3,0.6,0.7,0.7C63.1,19.5,63.3,19.4,63.5,19.2z"/>
<path class="st4" d="M64.5,19.7v-2.1h0.2V18c0.2-0.2,0.4-0.4,0.7-0.4v0.2h-0.1c-0.2,0-0.5,0.2-0.6,0.4v1.5L64.5,19.7L64.5,19.7z"/>
<path class="st4" d="M65.9,18.6c0-0.6,0.4-1,0.9-1.1c0,0,0.1,0,0.1,0c0.6,0,1,0.4,1,1c0,0,0,0.1,0,0.1v0.1h-1.8
	c0,0.4,0.3,0.8,0.8,0.8c0,0,0,0,0,0c0.3,0,0.5-0.1,0.7-0.3l0.1,0.1c-0.2,0.2-0.5,0.3-0.8,0.3C66.4,19.7,65.9,19.3,65.9,18.6
	C65.9,18.7,65.9,18.7,65.9,18.6z M66.9,17.8c-0.4,0-0.7,0.4-0.7,0.8h1.5C67.7,18.1,67.4,17.8,66.9,17.8C67,17.8,66.9,17.8,66.9,17.8
	L66.9,17.8z"/>
<path class="st4" d="M70,19.7v-1.4c0-0.2-0.1-0.5-0.4-0.5c0,0-0.1,0-0.1,0c-0.3,0-0.5,0.1-0.7,0.4v1.5h-0.2v-2h0.2v0.3
	c0.2-0.2,0.5-0.4,0.7-0.4c0.3,0,0.6,0.2,0.7,0.5c0,0.1,0,0.1,0,0.2v1.4L70,19.7L70,19.7z"/>
<path class="st4" d="M73.7,19.7v-0.2c-0.2,0.2-0.4,0.3-0.7,0.3c-0.4,0-0.7-0.3-0.7-0.7c0,0,0,0,0,0c0-0.4,0.3-0.7,0.7-0.7
	c0,0,0,0,0,0c0.3,0,0.5,0.1,0.7,0.3v-0.4c0-0.3-0.2-0.5-0.5-0.5c0,0,0,0,0,0c-0.2,0-0.5,0.1-0.6,0.3l-0.2-0.2
	c0.2-0.2,0.5-0.3,0.8-0.3c0.4-0.1,0.7,0.2,0.7,0.5c0,0,0,0.1,0,0.1v1.4H73.7z M73.7,19.3v-0.5c-0.2-0.2-0.4-0.3-0.6-0.3
	c-0.3-0.1-0.5,0.1-0.6,0.4s0.1,0.5,0.4,0.6c0.1,0,0.1,0,0.2,0C73.3,19.6,73.5,19.5,73.7,19.3z"/>
<path class="st4" d="M76.2,19.7v-1.4c0-0.2-0.1-0.5-0.4-0.5c0,0-0.1,0-0.1,0c-0.3,0-0.5,0.1-0.7,0.4v1.5h-0.2v-2H75v0.3
	c0.2-0.2,0.5-0.4,0.7-0.4c0.3,0,0.6,0.2,0.7,0.5c0,0.1,0,0.1,0,0.2v1.4L76.2,19.7L76.2,19.7z"/>
<path class="st4" d="M78.7,19.7v-0.3c-0.2,0.2-0.4,0.4-0.7,0.4c-0.5-0.1-0.9-0.5-0.9-1.1c0-0.6,0.4-1,0.9-1.1c0,0,0,0,0,0
	c0.3,0,0.5,0.1,0.7,0.4v-1.1H79v2.8H78.7z M78.7,19.2v-1c-0.2-0.2-0.4-0.4-0.7-0.4c-0.5,0.1-0.8,0.6-0.7,1.1
	c0.1,0.3,0.3,0.6,0.7,0.7C78.3,19.5,78.6,19.4,78.7,19.2z"/>
<path class="st4" d="M81.2,19.7v-2.8H83v0.2h-1.6v1h1.5v0.2h-1.5v1.3L81.2,19.7L81.2,19.7z"/>
<path class="st4" d="M84.9,19.7v-0.2c-0.2,0.2-0.4,0.3-0.7,0.3c-0.4,0-0.7-0.3-0.7-0.7c0,0,0,0,0,0c0-0.4,0.3-0.7,0.7-0.7
	c0,0,0,0,0,0c0.3,0,0.5,0.1,0.7,0.3v-0.4c0-0.3-0.2-0.5-0.5-0.5c0,0,0,0,0,0c-0.2,0-0.5,0.1-0.6,0.3l-0.1-0.2
	c0.2-0.2,0.5-0.4,0.8-0.3c0.4-0.1,0.7,0.2,0.7,0.5c0,0,0,0.1,0,0.1v1.4L84.9,19.7L84.9,19.7z M84.9,19.3v-0.5
	c-0.2-0.2-0.4-0.3-0.6-0.3c-0.3-0.1-0.5,0.1-0.6,0.4s0.1,0.5,0.4,0.6c0.1,0,0.1,0,0.2,0C84.5,19.6,84.7,19.5,84.9,19.3z"/>
<path class="st4" d="M88.4,19.7v-1.4c0-0.2-0.1-0.4-0.3-0.5c0,0-0.1,0-0.1,0c-0.2,0-0.5,0.1-0.6,0.4v1.6h-0.2v-1.4
	c0-0.2-0.1-0.4-0.3-0.5c0,0-0.1,0-0.1,0c-0.2,0-0.5,0.1-0.6,0.4v1.5H86v-2h0.2v0.3c0.2-0.2,0.4-0.3,0.7-0.4c0.3,0,0.5,0.1,0.5,0.4
	c0.1-0.2,0.4-0.4,0.7-0.4c0.3,0,0.5,0.2,0.6,0.5c0,0,0,0.1,0,0.1v1.5L88.4,19.7L88.4,19.7z"/>
<path class="st4" d="M89.4,17.1c0-0.1,0.1-0.2,0.2-0.2c0.1,0,0.2,0.1,0.2,0.2s-0.1,0.2-0.2,0.2C89.5,17.3,89.4,17.2,89.4,17.1z
	 M89.5,19.7v-2.1h0.2v2L89.5,19.7L89.5,19.7z"/>
<path class="st4" d="M90.6,19.7v-2.8h0.2v2.8H90.6z"/>
<path class="st4" d="M91.6,17.1c0-0.1,0.1-0.2,0.2-0.2c0.1,0,0.2,0.1,0.2,0.2s-0.1,0.2-0.2,0.2C91.7,17.3,91.6,17.2,91.6,17.1z
	 M91.6,19.7v-2.1h0.2v2L91.6,19.7L91.6,19.7z"/>
<path class="st4" d="M92.6,18.6c0-0.6,0.4-1,0.9-1.1c0,0,0.1,0,0.1,0c0.6,0,1,0.4,1,1c0,0,0,0.1,0,0.1v0.1h-1.7
	c0,0.4,0.3,0.8,0.8,0.8c0,0,0,0,0,0c0.3,0,0.5-0.1,0.7-0.3l0.1,0.1c-0.2,0.2-0.5,0.3-0.8,0.3c-0.6,0-1-0.4-1.1-0.9
	C92.6,18.7,92.6,18.7,92.6,18.6z M93.6,17.8c-0.4,0-0.7,0.4-0.7,0.8h1.5C94.4,18.1,94,17.8,93.6,17.8C93.6,17.8,93.6,17.8,93.6,17.8
	L93.6,17.8z"/>
<path class="st4" d="M95.2,19.4l0.1-0.2c0.2,0.2,0.4,0.3,0.7,0.3c0.3,0,0.5-0.1,0.5-0.4c0,0,0,0,0,0c-0.1-0.3-0.3-0.4-0.6-0.4
	c-0.3,0-0.7-0.2-0.7-0.6c0-0.3,0.3-0.6,0.7-0.6c0,0,0,0,0.1,0c0.3,0,0.6,0.1,0.7,0.3L96.6,18c-0.1-0.2-0.4-0.3-0.6-0.3
	c-0.2,0-0.5,0.1-0.5,0.4c0,0,0,0,0,0c0,0.2,0.3,0.3,0.6,0.4c0.4,0,0.7,0.3,0.8,0.6c0,0.4-0.3,0.6-0.7,0.6c0,0-0.1,0-0.1,0
	C95.7,19.7,95.4,19.6,95.2,19.4z"/>
</svg>
