<svg id="Layer_1" data-name="Layer 1" xmlns="http://www.w3.org/2000/svg" viewBox="0 0 1277.39 1277.39"><defs><style>.cls-1{fill:#fff;}</style></defs><title>align-circle-white</title><path class="cls-1" d="M1597.74-122.95a24.4,24.4,0,0,1-17.31-7.17C1492.17-218.37,1374.82-267,1250-267a24.48,24.48,0,0,1-24.48-24.48A24.48,24.48,0,0,1,1250-315.93c137.89,0,267.53,53.7,365,151.2a24.48,24.48,0,0,1,0,34.62A24.41,24.41,0,0,1,1597.74-122.95Z" transform="translate(-611.31 438.35)"/><path class="cls-1" d="M815.68-209.49a24.4,24.4,0,0,1-17.31-7.17,24.48,24.48,0,0,1,0-34.62C919-371.91,1079.4-438.35,1250-438.35a24.48,24.48,0,0,1,24.48,24.48A24.48,24.48,0,0,1,1250-389.39c-157.53,0-305.62,61.34-417,172.73A24.4,24.4,0,0,1,815.68-209.49Z" transform="translate(-611.31 438.35)"/><path class="cls-1" d="M635.79,224.82a24.48,24.48,0,0,1-24.48-24.48c0-170.6,66.44-331,187.07-451.62a24.48,24.48,0,0,1,34.62,0,24.48,24.48,0,0,1,0,34.62c-111.38,111.38-172.73,259.48-172.73,417A24.48,24.48,0,0,1,635.79,224.82Z" transform="translate(-611.31 438.35)"/><path class="cls-1" d="M1250,839C1079.4,839,919,772.61,798.39,652A24.48,24.48,0,0,1,833,617.37c111.38,111.38,259.48,172.71,417,172.71A24.48,24.48,0,1,1,1250,839Z" transform="translate(-611.31 438.35)"/><path class="cls-1" d="M1684.32,659.14A24.48,24.48,0,0,1,1667,617.36c111.38-111.39,172.73-259.49,172.73-417a24.48,24.48,0,0,1,49,0c0,170.6-66.44,331-187.07,451.62A24.39,24.39,0,0,1,1684.32,659.14Z" transform="translate(-611.31 438.35)"/><path class="cls-1" d="M1864.21,224.82a24.48,24.48,0,0,1-24.48-24.48c0-157.52-61.35-305.62-172.74-417a24.48,24.48,0,0,1,0-34.62,24.48,24.48,0,0,1,34.62,0c120.64,120.64,187.08,281,187.08,451.63A24.48,24.48,0,0,1,1864.21,224.82Z" transform="translate(-611.31 438.35)"/><path class="cls-1" d="M758.2,224.82a24.48,24.48,0,0,1-24.48-24.48c0-137.9,53.7-267.55,151.22-365.06a24.48,24.48,0,0,1,34.62,0,24.48,24.48,0,0,1,0,34.62C831.28-41.83,782.68,75.52,782.68,200.35A24.48,24.48,0,0,1,758.2,224.82Z" transform="translate(-611.31 438.35)"/><path class="cls-1" d="M1250,716.63a24.48,24.48,0,1,1,0-49c124.82,0,242.18-48.61,330.45-136.87a24.48,24.48,0,0,1,34.62,34.62C1517.55,662.92,1387.9,716.63,1250,716.63Z" transform="translate(-611.31 438.35)"/><path class="cls-1" d="M1741.8,224.82a24.48,24.48,0,0,1-24.48-24.48c0-124.83-48.62-242.19-136.89-330.46a24.48,24.48,0,0,1,0-34.62,24.48,24.48,0,0,1,34.62,0c97.53,97.52,151.24,227.17,151.24,365.08A24.48,24.48,0,0,1,1741.8,224.82Z" transform="translate(-611.31 438.35)"/><path class="cls-1" d="M1250,592A389.1,389.1,0,0,1,973,477.32a24.48,24.48,0,1,1,34.62-34.62A340.46,340.46,0,0,0,1250,543.08,24.48,24.48,0,1,1,1250,592Z" transform="translate(-611.31 438.35)"/><path class="cls-1" d="M902.25,572.59a24.4,24.4,0,0,1-17.31-7.17c-97.52-97.51-151.23-227.16-151.23-365.07a24.48,24.48,0,0,1,49,0c0,124.83,48.61,242.19,136.88,330.46A24.48,24.48,0,0,1,902.25,572.59Z" transform="translate(-611.31 438.35)"/><path class="cls-1" d="M882.79,224.82a24.48,24.48,0,0,1-24.48-24.48A389.11,389.11,0,0,1,973-76.62a24.48,24.48,0,0,1,34.62,0,24.48,24.48,0,0,1,0,34.62A340.49,340.49,0,0,0,907.27,200.35,24.48,24.48,0,0,1,882.79,224.82Z" transform="translate(-611.31 438.35)"/><path class="cls-1" d="M1509.65,484.48a24.48,24.48,0,0,1-17.31-41.79,340.49,340.49,0,0,0,100.38-242.35,24.48,24.48,0,0,1,49,0,389.11,389.11,0,0,1-114.73,277A24.4,24.4,0,0,1,1509.65,484.48Z" transform="translate(-611.31 438.35)"/><path class="cls-1" d="M1617.21,224.82a24.48,24.48,0,0,1-24.48-24.48A340.5,340.5,0,0,0,1492.34-42a24.47,24.47,0,0,1,0-34.62,24.48,24.48,0,0,1,34.62,0,389.12,389.12,0,0,1,114.74,277A24.48,24.48,0,0,1,1617.21,224.82Z" transform="translate(-611.31 438.35)"/><path class="cls-1" d="M990.34-34.83A24.4,24.4,0,0,1,973-42a24.48,24.48,0,0,1,0-34.62,389.13,389.13,0,0,1,277-114.72,24.48,24.48,0,0,1,24.48,24.48A24.48,24.48,0,0,1,1250-142.38,340.49,340.49,0,0,0,1007.65-42,24.4,24.4,0,0,1,990.34-34.83Z" transform="translate(-611.31 438.35)"/></svg>