<?xml version="1.0" encoding="UTF-8" standalone="no"?>
<svg width="294px" height="72px" viewBox="0 0 294 72" version="1.1" xmlns="http://www.w3.org/2000/svg" xmlns:xlink="http://www.w3.org/1999/xlink">
    <!-- Generator: Sketch 40.1 (33804) - http://www.bohemiancoding.com/sketch -->
    <title>Camex logo no map</title>
    <desc>Created with Sketch.</desc>
    <defs></defs>
    <g id="--Symbols" stroke="none" stroke-width="1" fill="none" fill-rule="evenodd">
        <g id="Site-Header">
            <g id="Header">
                <g id="Camex-logo-no-map">
                    <polygon id="Fill-27" fill="#DD3B41" points="41.5882746 54.4012683 293.562949 54.4012683 293.562949 56.7228293 41.5882746 56.7228293"></polygon>
                    <path d="M57.2589134,34.6232195 L65.0073493,34.6232195 L63.0704597,18.9052683 L57.2589134,34.6232195 L57.2589134,34.6232195 Z M57.7986448,8.5697561 L70.9277194,8.5697561 L75.6615582,50.1260488 L65.9771104,50.1260488 L65.4373791,42.8057561 L54.4619642,42.8057561 L51.7729612,50.1260488 L42.3035284,50.1260488 L57.7986448,8.5697561 L57.7986448,8.5697561 Z" id="Fill-28" fill="#0099A3"></path>
                    <polyline id="Fill-29" fill="#0099A3" points="100.948191 33.5467317 98.6892179 8.5697561 84.7009612 8.5697561 77.8143403 50.1260488 87.4979104 50.1260488 91.6937731 24.5037073 94.8163164 50.1260488 102.778012 50.1260488 113.861373 23.6423415 110.74234 50.1260488 119.565851 50.1260488 125.376519 8.5697561 110.526448 8.5697561 100.948191 33.5467317"></polyline>
                    <polyline id="Fill-30" fill="#0099A3" points="152.493851 8.5697561 129.250299 8.5697561 123.224615 50.1260488 147.11409 50.1260488 148.294478 40.8679024 134.306221 40.8679024 135.383051 33.1164878 148.941278 33.1164878 150.231367 24.9339512 136.028096 24.9339512 137.31994 18.2590244 151.523212 18.2590244 152.493851 8.5697561"></polyline>
                    <polyline id="Fill-31" fill="#0099A3" points="166.912137 8.5697561 156.36763 8.5697561 162.714519 28.3794146 149.910161 50.1260488 160.456424 50.1260488 168.741081 35.9157073 173.369606 50.1260488 183.699976 50.1260488 176.488639 29.4559024 188.649707 8.5697561 177.887552 8.5697561 170.892985 22.7809756 166.912137 8.5697561"></polyline>
                    <path d="M26.9391761,43.8418537 C27.6123045,42.7451707 28.117809,41.1971707 28.4548119,39.2013659 C28.4653433,39.1381463 28.5153672,38.8009756 28.6066388,38.1907317 L40.5921851,38.3145366 C40.5228537,38.7272195 40.4728299,39.023122 40.442991,39.2013659 C40.133194,40.9794146 39.834806,42.5467317 39.5504597,43.9050732 L26.9391761,43.8418537 L26.9391761,43.8418537 Z M3.09533731,24.1788293 C3.85534925,19.8509268 4.69434627,16.4089756 5.61057313,13.8556098 L44.233397,13.6606829 C44.2009254,14.2226341 44.1535343,14.8056585 44.0912239,15.408 C43.9481731,16.6478049 43.6383761,18.8113171 43.1600776,21.9099512 L31.1157313,21.9099512 C31.191206,21.3400976 31.2447403,20.952878 31.2789672,20.7518049 C31.7133851,17.9148293 31.5299642,16.0814634 30.7295821,15.2508293 C29.9292,14.418439 27.961594,13.9996098 24.8223761,13.9996098 C22.6976776,13.9996098 21.0705851,14.3007805 19.9402209,14.903122 C18.8089791,15.5045854 17.9190806,16.5687805 17.2635045,18.0869268 C16.8080239,19.0905366 16.3586866,20.6956098 15.9207582,22.9021463 C15.8426507,23.2761951 15.7566448,23.706439 15.6618627,24.192878 L3.09533731,24.1788293 L3.09533731,24.1788293 Z M1.23567761,35.8647805 C1.62007164,33.1990244 2.0948597,30.1600976 2.66179701,26.7515122 L15.181809,26.7611707 C14.7710866,29.0239024 14.2620716,31.9530732 13.6556418,35.5478049 C13.6372119,35.6522927 13.6196597,35.7567805 13.6029851,35.8603902 L1.23567761,35.8647805 L1.23567761,35.8647805 Z M0.305408955,43.92 C0.366841791,42.803122 0.473910448,41.6195122 0.627492537,40.3691707 C0.711743284,39.6834146 0.805647761,38.9607805 0.908328358,38.2030244 L13.2738806,38.2003902 C12.9869015,40.7247805 13.0237612,42.5862439 13.3879701,43.7830244 L0.305408955,43.92 L0.305408955,43.92 Z M0.532710448,50.1023415 C0.328226866,48.8212683 0.233444776,47.3821463 0.245731343,45.7849756 L15.1458269,45.7805854 C16.2042269,46.296878 17.7181075,46.5550244 19.6901015,46.5550244 C21.7902269,46.5550244 23.4489134,46.3030244 24.6617731,45.7981463 L39.1327164,45.7849756 C38.9422746,46.584878 38.7588537,47.2820488 38.5815761,47.8773659 C38.3551522,48.636 38.0988896,49.3516098 37.8119104,50.0241951 L0.532710448,50.1023415 L0.532710448,50.1023415 Z M1.79032836,54.3801951 C1.45595821,53.7251707 1.18214328,52.9981463 0.964495522,52.1780488 L36.4647761,52.1780488 C36.0005194,52.8576585 35.4748299,53.5838049 34.9026269,54.2897561 L1.79032836,54.3801951 L1.79032836,54.3801951 Z M33.0456,56.2934634 C32.7024537,56.6086829 32.3496537,56.8993171 31.9907104,57.1557073 C30.2670806,58.3876098 28.5101015,59.2041951 26.7171403,59.6054634 C25.2252,59.921561 22.2211343,60.0822439 17.7075761,60.0822439 C13.770609,60.0822439 11.038603,59.9672195 9.50541493,59.7380488 C7.97398209,59.508878 6.6005194,58.9934634 5.38678209,58.1865366 C4.43983881,57.5736585 3.64121194,56.9142439 2.9768597,56.1468293 L33.0456,56.2934634 L33.0456,56.2934634 Z M6.61017313,11.4620488 C7.5922209,9.432 8.82438806,7.66360976 10.3119403,6.15512195 C12.5568716,3.85902439 14.9167701,2.34 17.3872478,1.59453659 C19.8594806,0.84995122 23.7481791,0.473268293 29.0568537,0.473268293 C32.0433672,0.473268293 34.2145791,0.559317073 35.5678567,0.731414634 C36.9228896,0.903512195 38.1217075,1.23629268 39.1686985,1.72360976 C41.2802328,2.6982439 42.7256597,4.28136585 43.5058567,6.48087805 C43.9780119,7.80673171 44.2360299,9.42146341 44.2799104,11.321561 L6.61017313,11.4620488 L6.61017313,11.4620488 Z" id="Fill-32" fill="#0099A3"></path>
                    <polyline id="Fill-33" fill="#0099A3" points="195.323946 38.4760976 195.013272 41.0733659 201.188149 41.0733659 200.866943 43.7540488 194.691188 43.7540488 194.356818 46.548878 201.084591 46.548878 200.701075 49.7379512 190.079337 49.7379512 191.813499 35.2861463 202.307982 35.2861463 201.926221 38.4760976 195.323946 38.4760976"></polyline>
                    <path d="M210.159099,39.6052683 L209.951104,41.328 L209.845791,41.328 C209.650084,40.6167805 209.366615,40.1373659 208.995385,39.8906341 C208.624155,39.6439024 207.998418,39.5209756 207.119051,39.5209756 C206.23354,39.5209756 205.50249,39.6614634 204.927654,39.9441951 C204.350185,40.2260488 203.888561,40.6668293 203.544537,41.2665366 C203.242639,41.7889756 203.005684,42.7600976 202.834549,44.1772683 C202.666048,45.5891707 202.594961,46.5910244 202.622167,47.1837073 C202.651128,47.7763902 202.792424,48.2847805 203.051319,48.708 C203.514699,49.4701463 204.492358,49.8512195 205.984299,49.8512195 C206.828561,49.8512195 207.482382,49.7177561 207.946639,49.4499512 C208.411773,49.1839024 208.793534,48.7176585 209.091045,48.0564878 L209.142824,48.0564878 L208.419672,54.0851707 L211.717737,54.0851707 L213.455409,39.6052683 L210.159099,39.6052683 L210.159099,39.6052683 Z M209.474561,42.5397073 C209.630776,42.8979512 209.632531,43.7119024 209.480704,44.9850732 C209.366615,45.9316098 209.177928,46.5620488 208.919033,46.872878 C208.656627,47.1837073 208.180961,47.339122 207.493791,47.339122 C207.001451,47.339122 206.64514,47.2820488 206.42486,47.1687805 C206.202824,47.0555122 206.065916,46.8614634 206.015893,46.5875122 C205.947439,46.2178537 205.987809,45.4091707 206.138758,44.1579512 C206.243194,43.2807805 206.429248,42.7030244 206.694287,42.4229268 C206.95757,42.1445854 207.44991,42.0040976 208.166042,42.0040976 C208.880418,42.0040976 209.318346,42.1832195 209.474561,42.5397073 L209.474561,42.5397073 Z" id="Fill-34" fill="#0099A3"></path>
                    <path d="M225.150466,39.6052683 L223.933218,49.7379512 L220.631642,49.7379512 L221.050263,47.663122 L220.987075,47.663122 C220.662358,48.4243902 220.228818,48.978439 219.691719,49.3279024 C219.148478,49.6773659 218.448143,49.8512195 217.586328,49.8512195 C216.101409,49.8512195 215.157099,49.3639024 214.750764,48.3875122 C214.562955,47.9484878 214.519952,47.3092683 214.622633,46.4672195 L215.445833,39.6052683 L218.744776,39.6052683 L218.049707,45.4030244 C217.99003,45.9474146 217.961069,46.2766829 217.957558,46.385561 C217.954048,46.4953171 217.975988,46.6068293 218.018991,46.7200976 C218.178716,47.0950244 218.568376,47.2820488 219.191481,47.2820488 C219.937451,47.2820488 220.490346,47.0212683 220.840513,46.4961951 C220.98883,46.2705366 221.111696,45.7437073 221.210866,44.9148293 L221.84889,39.6052683 L225.150466,39.6052683" id="Fill-35" fill="#0099A3"></path>
                    <path d="M230.627642,39.6052683 L229.410394,49.7379512 L226.108818,49.7379512 L227.326943,39.6052683 L230.627642,39.6052683 L230.627642,39.6052683 Z M231.145433,35.2861463 L230.850555,37.7420488 L227.549857,37.7420488 L227.844734,35.2861463 L231.145433,35.2861463 L231.145433,35.2861463 Z" id="Fill-36" fill="#0099A3"></path>
                    <path d="M231.077857,54.0851707 L234.491767,54.0851707 L235.214919,48.0538537 L235.268454,48.0538537 C235.393075,48.7194146 235.654603,49.1847805 236.052161,49.4517073 C236.447964,49.7177561 237.084233,49.8512195 237.958334,49.8512195 C238.690263,49.8512195 239.283528,49.7844878 239.740764,49.6501463 C240.196245,49.5158049 240.586782,49.2936585 240.915009,48.9837073 C241.358203,48.5604878 241.695206,48.0196098 241.926896,47.3637073 C242.15683,46.7078049 242.349027,45.7340488 242.503487,44.442439 C242.648293,43.2430244 242.676376,42.3447805 242.59037,41.7485854 C242.503487,41.1523902 242.277063,40.6703415 241.913731,40.3041951 C241.380143,39.7817561 240.503409,39.5209756 239.293182,39.5209756 C238.285684,39.5209756 237.542346,39.6658537 237.064925,39.9547317 C236.70686,40.1663415 236.304036,40.6176585 235.855576,41.309561 L235.792388,41.309561 L236.113594,39.6052683 L232.816406,39.6052683 L231.077857,54.0851707 L231.077857,54.0851707 Z M239.094842,42.4914146 C239.263343,42.8268293 239.27914,43.5907317 239.135212,44.7804878 C239.009713,45.828 238.814006,46.5155122 238.5516,46.8456585 C238.286561,47.1740488 237.797731,47.339122 237.08511,47.339122 C236.380388,47.339122 235.923152,47.1722927 235.717791,46.8403902 C235.608967,46.6480976 235.545779,46.385561 235.533493,46.0492683 C235.522961,45.7138537 235.560699,45.18 235.649337,44.4503415 C235.771325,43.4309268 235.963522,42.7636098 236.231194,42.4492683 C236.4936,42.1340488 236.994716,41.976878 237.730155,41.976878 C238.469104,41.9830244 238.923707,42.156 239.094842,42.4914146 L239.094842,42.4914146 Z" id="Fill-37" fill="#0099A3"></path>
                    <path d="M244.844955,39.6052683 L248.146531,39.6052683 L247.870961,41.1892683 L247.924496,41.1892683 C248.446675,40.0767805 249.472603,39.5209756 251.002281,39.5209756 C252.962866,39.5209756 253.883481,40.1997073 253.763248,41.5571707 L253.826436,41.5571707 C254.242424,40.1997073 255.311355,39.5209756 257.034107,39.5209756 C257.696704,39.5209756 258.272418,39.6280976 258.764758,39.8432195 C259.25271,40.0583415 259.602,40.356 259.809116,40.7361951 C260.051337,41.1813659 260.111015,41.9259512 259.986394,42.9681951 L259.173725,49.7379512 L255.873027,49.7379512 L256.554931,44.0543415 C256.638304,43.3554146 256.633039,42.876 256.537379,42.6152195 C256.415391,42.2833171 256.069612,42.1173659 255.500042,42.1173659 C254.818137,42.1173659 254.336328,42.3114146 254.059003,42.6995122 C253.906299,42.911122 253.800107,43.2676098 253.739552,43.7689756 L253.023421,49.7379512 L249.722722,49.7379512 L250.438854,43.7689756 C250.510818,43.1683902 250.512573,42.7741463 250.444119,42.5827317 C250.325642,42.2727805 249.997415,42.1173659 249.455928,42.1173659 C248.88197,42.1173659 248.45194,42.246439 248.171104,42.5037073 C247.892901,42.7609756 247.717379,43.1833171 247.64717,43.7689756 L246.930161,49.7379512 L243.628585,49.7379512 L244.844955,39.6052683" id="Fill-38" fill="#0099A3"></path>
                    <path d="M267.317087,47.3127805 C267.080131,47.4813659 266.670287,47.5647805 266.084919,47.5647805 C265.414424,47.5647805 264.97474,47.4313171 264.764113,47.1617561 C264.551731,46.8939512 264.492054,46.386439 264.580693,45.6409756 C264.592979,45.540878 264.611409,45.4012683 264.642125,45.2221463 L271.117146,45.2221463 C271.18209,44.7383415 271.223337,44.4213659 271.24089,44.2738537 C271.46117,42.4396098 271.275116,41.1892683 270.681851,40.5219512 C270.087707,39.8555122 268.863439,39.5209756 267.009045,39.5209756 C265.704036,39.5209756 264.682496,39.6667317 263.941791,39.96 C263.200209,40.2523902 262.638537,40.7309268 262.255899,41.3938537 C261.915385,41.993561 261.66,43.0059512 261.488866,44.4319024 C261.295791,46.0404878 261.283504,47.1801951 261.455516,47.8510244 C261.624018,48.5209756 262.051415,49.0258537 262.737707,49.3647805 C263.390651,49.6887805 264.456949,49.8512195 265.936603,49.8512195 C267.123134,49.8512195 268.023564,49.7634146 268.639648,49.5913171 C269.256609,49.4183415 269.750704,49.1119024 270.120179,48.6737561 C270.572149,48.1434146 270.850352,47.4392195 270.956543,46.5629268 C270.960054,46.5199024 270.96883,46.4540488 270.979361,46.3609756 L267.762913,46.3609756 C267.699725,46.8263415 267.551409,47.1441951 267.317087,47.3127805 L267.317087,47.3127805 Z M264.891367,43.416 C264.968597,42.8918049 265.045827,42.5590244 265.12569,42.4194146 C265.25031,42.209561 265.417934,42.0646829 265.628561,41.9839024 C265.839188,41.904 266.170048,41.8636098 266.62114,41.8636098 C267.080131,41.8636098 267.401337,41.8829268 267.587391,41.9206829 C267.773445,41.9593171 267.926149,42.0427317 268.045504,42.1674146 C268.193821,42.335122 268.244722,42.6468293 268.197331,43.1007805 C268.191188,43.1499512 268.181534,43.2553171 268.171003,43.416 L264.891367,43.416 L264.891367,43.416 Z" id="Fill-39" fill="#0099A3"></path>
                    <path d="M273.547254,39.6052683 L276.847952,39.6052683 L276.481988,41.6028293 L276.534645,41.6028293 C276.888322,40.8275122 277.3008,40.2866341 277.7712,39.9801951 C278.242478,39.6737561 278.898931,39.5209756 279.739684,39.5209756 C280.953421,39.5209756 281.809093,39.7668293 282.310209,40.2602927 C282.806937,40.7546341 282.992113,41.5343415 282.863982,42.5976585 L282.007433,49.7379512 L278.706734,49.7379512 L279.400925,43.9516098 C279.492197,43.1964878 279.469379,42.6977561 279.333349,42.4536585 C279.195564,42.2113171 278.86997,42.0883902 278.356567,42.0883902 C277.152484,42.0883902 276.48111,42.660878 276.345081,43.8032195 L275.631582,49.7379512 L272.330006,49.7379512 L273.547254,39.6052683" id="Fill-40" fill="#0099A3"></path>
                    <path d="M292.866125,39.6052683 L292.580901,41.976878 L288.741349,41.976878 L288.245499,46.1019512 C288.179678,46.6480976 288.184066,47.0080976 288.256907,47.1810732 C288.331504,47.3549268 288.518436,47.4418537 288.817701,47.4418537 C289.098537,47.4418537 289.311797,47.376 289.459236,47.2460488 C289.609307,47.1152195 289.718131,46.9009756 289.789218,46.6059512 C289.833976,46.4075122 289.885755,46.0650732 289.943678,45.5786341 L292.606352,45.5786341 C292.574758,45.7840976 292.555451,45.918439 292.547552,45.9816585 C292.40889,47.0212683 292.279003,47.6920976 292.157893,47.9959024 C291.890221,48.6886829 291.455803,49.1707317 290.856394,49.4429268 C290.253475,49.715122 289.327594,49.8512195 288.076119,49.8512195 C286.994024,49.8512195 286.240155,49.7265366 285.810125,49.4798049 C285.354645,49.2172683 285.058012,48.8932683 284.925493,48.5069268 C284.792096,48.1214634 284.77191,47.5340488 284.86757,46.7481951 L285.440651,41.976878 L284.20234,41.976878 L284.486687,39.6052683 L285.724997,39.6052683 L285.978627,37.4882927 L289.280203,37.4882927 L289.026573,39.6052683 L292.866125,39.6052683" id="Fill-41" fill="#0099A3"></path>
                    <path d="M47.1637433,64.6445854 C47.008406,63.2072195 46.0500537,62.5873171 44.6704478,62.5873171 C43.5444716,62.5873171 42.4176179,62.9956098 42.4176179,64.3065366 C42.4176179,65.5463415 44.0227701,65.7289756 45.6428418,66.095122 C47.247994,66.4621463 48.8531463,67.0258537 48.8531463,68.9979512 C48.8531463,71.1403902 46.7547761,71.999122 44.9240776,71.999122 C42.6703701,71.999122 40.7694627,70.9006829 40.7694627,68.4491707 L42.0367343,68.4491707 C42.0367343,70.1394146 43.4453015,70.8725854 44.966203,70.8725854 C46.1773075,70.8725854 47.5147881,70.4915122 47.5147881,69.0409756 C47.5147881,67.6598049 45.9096358,67.4209756 44.3044836,67.068 C42.6984537,66.7159024 41.0792597,66.2514146 41.0792597,64.404878 C41.0792597,62.3616585 42.8959164,61.4599024 44.7266149,61.4599024 C46.7828597,61.4599024 48.3458866,62.4327805 48.4310149,64.6445854 L47.1637433,64.6445854" id="Fill-42" fill="#0099A3"></path>
                    <path d="M56.7253254,70.8023415 C56.5708657,70.8585366 56.4576537,70.8725854 56.3593612,70.8725854 C55.9784776,70.8725854 55.9784776,70.6188293 55.9784776,70.055122 L55.9784776,66.3067317 C55.9784776,64.602439 54.5567463,64.3065366 53.2473493,64.3065366 C51.6272776,64.3065366 50.2327522,64.9404878 50.1625433,66.744 L51.359606,66.744 C51.4166507,65.6727805 52.1626209,65.3628293 53.1762627,65.3628293 C53.9371522,65.3628293 54.7963343,65.5322927 54.7963343,66.5745366 C54.7963343,67.4771707 53.6694806,67.392 52.3460418,67.6457561 C51.1059761,67.8854634 49.8808299,68.237561 49.8808299,69.8856585 C49.8808299,71.3370732 50.9655582,71.928878 52.288997,71.928878 C53.3035164,71.928878 54.1899045,71.5759024 54.8525015,70.8023415 C54.8525015,71.5908293 55.2465493,71.928878 55.8670209,71.928878 C56.2461493,71.928878 56.5138209,71.8586341 56.7253254,71.7321951 L56.7253254,70.8023415 L56.7253254,70.8023415 Z M54.7822925,69.2236098 C54.7822925,69.8856585 54.1337373,70.8725854 52.5566687,70.8725854 C51.8238627,70.8725854 51.1489791,70.5898537 51.1489791,69.8013659 C51.1489791,68.9136585 51.8238627,68.6318049 52.6128358,68.4913171 C53.4158507,68.3508293 54.3171582,68.3359024 54.7822925,67.9978537 L54.7822925,69.2236098 L54.7822925,69.2236098 Z" id="Fill-43" fill="#0099A3"></path>
                    <polygon id="Fill-44" fill="#0099A3" points="57.9083463 61.6996098 59.105409 61.6996098 59.105409 71.7594146 57.9083463 71.7594146"></polygon>
                    <path d="M65.9911522,69.4492683 C65.7805254,70.3931707 65.0898448,70.8725854 64.1042866,70.8725854 C62.5131761,70.8725854 61.7944119,69.7451707 61.8374149,68.4772683 L67.2873851,68.4772683 C67.357594,66.7159024 66.5686209,64.3065366 63.9919522,64.3065366 C62.0059164,64.3065366 60.5692657,65.9124878 60.5692657,68.0970732 C60.6394746,70.3229268 61.7382448,71.928878 64.0621612,71.928878 C65.695397,71.928878 66.8503343,71.0552195 67.1750507,69.4492683 L65.9911522,69.4492683 L65.9911522,69.4492683 Z M61.8374149,67.4209756 C61.9216657,66.3067317 62.6685134,65.3628293 63.9208657,65.3628293 C65.1038866,65.3628293 65.9630687,66.2786341 66.0192358,67.4209756 L61.8374149,67.4209756 L61.8374149,67.4209756 Z" id="Fill-45" fill="#0099A3"></path>
                    <path d="M69.2585015,69.4633171 C69.3006269,70.5336585 70.2300179,70.8725854 71.2164537,70.8725854 C71.9624239,70.8725854 72.9769433,70.703122 72.9769433,69.7873171 C72.9769433,68.8574634 71.7930448,68.7029268 70.5968597,68.4342439 C69.4129612,68.1673171 68.2167761,67.7721951 68.2167761,66.3778537 C68.2167761,64.9123902 69.6674687,64.3065366 70.9347403,64.3065366 C72.5398925,64.3065366 73.8220836,64.8131707 73.9203761,66.5894634 L72.7233134,66.5894634 C72.6381851,65.6587317 71.822006,65.3628293 71.0330328,65.3628293 C70.3151463,65.3628293 69.4840478,65.5603902 69.4840478,66.2926829 C69.4840478,67.1522927 70.7513194,67.2936585 71.8632537,67.5605854 C73.061194,67.8283902 74.2433373,68.2235122 74.2433373,69.6327805 C74.2433373,71.3651707 72.6241433,71.928878 71.1462448,71.928878 C69.5121313,71.928878 68.1316478,71.2668293 68.0614388,69.4633171 L69.2585015,69.4633171" id="Fill-46" fill="#0099A3"></path>
                    <path d="M82.4542746,65.574439 C82.0172239,65.0256585 81.4827582,64.4329756 81.4827582,63.827122 C81.4827582,63.0948293 82.0742687,62.7567805 82.6376955,62.7567805 C83.3555821,62.7567805 83.7917552,63.2493659 83.7917552,63.827122 C83.7917552,64.6726829 83.0317433,65.2082927 82.4542746,65.574439 L82.4542746,65.574439 Z M86.1016299,71.7594146 L87.6646567,71.7594146 L85.7075821,69.4914146 C86.1297134,68.6037073 86.2850507,68.1954146 86.3833433,67.0118049 L85.2424478,67.0118049 C85.2143642,67.5474146 85.1020299,68.0821463 84.9194866,68.5756098 L83.1019522,66.3629268 C84.0734687,65.8141463 84.9896955,64.9545366 84.9896955,63.756878 C84.9896955,62.3906341 83.805797,61.6996098 82.5525672,61.6996098 C81.1027522,61.6996098 80.2856955,62.6716098 80.2856955,63.7709268 C80.2856955,64.799122 80.8350806,65.3347317 81.3985075,66.1381463 C80.1163164,66.8142439 79.0465075,67.6036098 79.0465075,69.1814634 C79.0465075,69.9989268 79.4686388,71.928878 82.186603,71.928878 C83.2853731,71.928878 84.4262687,71.4494634 85.0318209,70.506439 L86.1016299,71.7594146 L86.1016299,71.7594146 Z M84.3701015,69.6749268 C83.8768836,70.4072195 83.1440776,70.8725854 82.2287284,70.8725854 C81.2572119,70.8725854 80.3137791,70.181561 80.3137791,69.1674146 C80.3137791,67.9697561 81.116794,67.4341463 82.0602269,66.8985366 L84.3701015,69.6749268 L84.3701015,69.6749268 Z" id="Fill-47" fill="#0099A3"></path>
                    <path d="M92.4669493,71.7594146 L93.8053075,71.7594146 L93.8053075,67.4622439 L97.0726567,67.4622439 C98.3680119,67.4622439 98.6076,68.2937561 98.7480179,69.2806829 C98.944603,70.2667317 98.7339761,71.351122 99.1139821,71.7594146 L100.6068,71.7594146 C100.043373,71.0692683 100.100418,69.9708293 100.01529,68.9839024 C99.916997,67.9978537 99.677409,67.1382439 98.5084299,66.9125854 L98.5084299,66.8853659 C99.7195343,66.546439 100.254878,65.5463415 100.254878,64.3337561 C100.254878,62.7286829 99.0858985,61.6996098 97.1990328,61.6996098 L92.4669493,61.6996098 L92.4669493,71.7594146 L92.4669493,71.7594146 Z M93.8053075,66.3357073 L93.8053075,62.8270244 L97.1288239,62.8270244 C98.3811761,62.8270244 98.917397,63.5601951 98.917397,64.5462439 C98.917397,66.0117073 97.8467104,66.3357073 96.5934806,66.3357073 L93.8053075,66.3357073 L93.8053075,66.3357073 Z" id="Fill-48" fill="#0099A3"></path>
                    <path d="M106.944913,69.4492683 C106.732531,70.3931707 106.042728,70.8725854 105.05717,70.8725854 C103.465182,70.8725854 102.747296,69.7451707 102.790299,68.4772683 L108.240269,68.4772683 C108.310478,66.7159024 107.521504,64.3065366 104.944836,64.3065366 C102.9588,64.3065366 101.522149,65.9124878 101.522149,68.0970732 C101.593236,70.3229268 102.692006,71.928878 105.015045,71.928878 C106.648281,71.928878 107.803218,71.0552195 108.127057,69.4492683 L106.944913,69.4492683 L106.944913,69.4492683 Z M102.790299,67.4209756 C102.874549,66.3067317 103.621397,65.3628293 104.873749,65.3628293 C106.05677,65.3628293 106.915952,66.2786341 106.972119,67.4209756 L102.790299,67.4209756 L102.790299,67.4209756 Z" id="Fill-49" fill="#0099A3"></path>
                    <path d="M109.478579,64.476 L110.605433,64.476 L110.605433,65.6306341 L110.633516,65.6306341 C111.140776,64.728878 111.957833,64.3065366 112.999558,64.3065366 C114.914507,64.3065366 115.506018,65.4049756 115.506018,66.9687805 L115.506018,71.7594146 L114.309833,71.7594146 L114.309833,66.8282927 C114.309833,65.9405854 113.746406,65.3628293 112.831057,65.3628293 C111.380364,65.3628293 110.676519,66.3357073 110.676519,67.6457561 L110.676519,71.7594146 L109.478579,71.7594146 L109.478579,64.476" id="Fill-50" fill="#0099A3"></path>
                    <path d="M118.97083,64.476 L120.421522,64.476 L120.421522,65.5322927 L118.97083,65.5322927 L118.97083,70.055122 C118.97083,70.6047805 119.12529,70.703122 119.872137,70.703122 L120.421522,70.703122 L120.421522,71.7594146 L119.506173,71.7594146 C118.266985,71.7594146 117.773767,71.5065366 117.773767,70.1675122 L117.773767,65.5322927 L116.534579,65.5322927 L116.534579,64.476 L117.773767,64.476 L117.773767,62.2914146 L118.97083,62.2914146 L118.97083,64.476" id="Fill-51" fill="#0099A3"></path>
                    <path d="M128.195409,70.8023415 C128.040072,70.8585366 127.92686,70.8725854 127.828567,70.8725854 C127.448561,70.8725854 127.448561,70.6188293 127.448561,70.055122 L127.448561,66.3067317 C127.448561,64.602439 126.025952,64.3065366 124.716555,64.3065366 C123.097361,64.3065366 121.702836,64.9404878 121.632627,66.744 L122.82969,66.744 C122.885857,65.6727805 123.631827,65.3628293 124.646346,65.3628293 C125.406358,65.3628293 126.26554,65.5322927 126.26554,66.5745366 C126.26554,67.4771707 125.139564,67.392 123.815248,67.6457561 C122.57606,67.8854634 121.350913,68.237561 121.350913,69.8856585 C121.350913,71.3370732 122.434764,71.928878 123.759081,71.928878 C124.772722,71.928878 125.659988,71.5759024 126.321707,70.8023415 C126.321707,71.5908293 126.716633,71.928878 127.336227,71.928878 C127.716233,71.928878 127.983904,71.8586341 128.195409,71.7321951 L128.195409,70.8023415 L128.195409,70.8023415 Z M126.251499,69.2236098 C126.251499,69.8856585 125.603821,70.8725854 124.026752,70.8725854 C123.294824,70.8725854 122.618185,70.5898537 122.618185,69.8013659 C122.618185,68.9136585 123.294824,68.6318049 124.082919,68.4913171 C124.885934,68.3508293 125.787242,68.3359024 126.251499,67.9978537 L126.251499,69.2236098 L126.251499,69.2236098 Z" id="Fill-52" fill="#0099A3"></path>
                    <polygon id="Fill-53" fill="#0099A3" points="129.377552 61.6996098 130.574615 61.6996098 130.574615 71.7594146 129.377552 71.7594146"></polygon>
                    <path d="M133.166203,69.4633171 C133.208328,70.5336585 134.137719,70.8725854 135.124155,70.8725854 C135.869248,70.8725854 136.883767,70.703122 136.883767,69.7873171 C136.883767,68.8574634 135.700746,68.7029268 134.503684,68.4342439 C133.320663,68.1673171 132.124478,67.7721951 132.124478,66.3778537 C132.124478,64.9123902 133.574293,64.3065366 134.841564,64.3065366 C136.446716,64.3065366 137.72803,64.8131707 137.8272,66.5894634 L136.630137,66.5894634 C136.545887,65.6587317 135.729707,65.3628293 134.940734,65.3628293 C134.22197,65.3628293 133.391749,65.5603902 133.391749,66.2926829 C133.391749,67.1522927 134.658143,67.2936585 135.770955,67.5605854 C136.968018,67.8283902 138.151916,68.2235122 138.151916,69.6327805 C138.151916,71.3651707 136.531845,71.928878 135.053069,71.928878 C133.418955,71.928878 132.039349,71.2668293 131.96914,69.4633171 L133.166203,69.4633171" id="Fill-54" fill="#0099A3"></path>
                    <polygon id="Fill-55" fill="#0099A3" points="143.644012 61.6996098 144.981493 61.6996098 144.981493 71.7594146 143.644012 71.7594146"></polygon>
                    <path d="M147.037737,64.476 L148.163713,64.476 L148.163713,65.6306341 L148.191797,65.6306341 C148.699057,64.728878 149.516113,64.3065366 150.558716,64.3065366 C152.473666,64.3065366 153.065176,65.4049756 153.065176,66.9687805 L153.065176,71.7594146 L151.868113,71.7594146 L151.868113,66.8282927 C151.868113,65.9405854 151.304687,65.3628293 150.389337,65.3628293 C148.938645,65.3628293 148.2348,66.3357073 148.2348,67.6457561 L148.2348,71.7594146 L147.037737,71.7594146 L147.037737,64.476" id="Fill-56" fill="#0099A3"></path>
                    <path d="M159.810501,66.8142439 C159.627081,65.898439 158.994322,65.3628293 158.007887,65.3628293 C156.275481,65.3628293 155.741015,66.7299512 155.741015,68.2094634 C155.741015,69.5476098 156.34569,70.8725854 157.867469,70.8725854 C159.022406,70.8725854 159.711331,70.1956098 159.867546,69.0971707 L161.092693,69.0971707 C160.825021,70.8725854 159.711331,71.928878 157.880633,71.928878 C155.655887,71.928878 154.472866,70.379122 154.472866,68.2094634 C154.472866,66.024878 155.599719,64.3065366 157.908716,64.3065366 C159.556872,64.3065366 160.88031,65.0809756 161.04969,66.8142439 L159.810501,66.8142439" id="Fill-57" fill="#0099A3"></path>
                    <polygon id="Fill-58" fill="#0099A3" points="162.697845 70.1956098 164.260872 70.1956098 164.260872 71.7594146 162.697845 71.7594146"></polygon>
                </g>
            </g>
        </g>
    </g>
</svg>